<?xml version="1.0" encoding="utf-8"?>
<!-- Generator: Adobe Illustrator 18.1.1, SVG Export Plug-In . SVG Version: 6.00 Build 0)  -->
<svg version="1.1" id="Layer_1" xmlns="http://www.w3.org/2000/svg" viewBox="0 0 480 80" preserveAspectRatio="xMinYMin meet">
<path fill="#6E6F72" stroke="#6E6F72" stroke-width="2" stroke-miterlimit="10" d="M469.3,57.2v-4.5h6.2v-1.4h-6.2v-4.2h7v-1.4h-8.7
	v13.1h8.9v-1.4h-7.2L469.3,57.2L469.3,57.2z M463.9,45.6h-10.7V47h4.5v11.6h1.7V47.1h4.5V45.6z M442.2,56.9
	c-0.5-0.3-0.9-0.7-1.2-1.1c-0.3-0.5-0.5-1-0.7-1.6s-0.2-1.3-0.2-1.9v-6.6h-1.7v6.6c0,0.8,0.1,1.7,0.3,2.5c0.2,0.8,0.5,1.5,0.9,2.1
	s1,1.1,1.7,1.4s1.6,0.6,2.6,0.6s1.9-0.2,2.5-0.5c0.7-0.3,1.3-0.8,1.7-1.4c0.4-0.6,0.8-1.3,0.9-2.1c0.2-0.8,0.3-1.6,0.3-2.5v-6.6
	h-1.7v6.6c0,0.6-0.1,1.3-0.2,1.9c-0.1,0.6-0.3,1.2-0.7,1.6c-0.3,0.5-0.7,0.8-1.2,1.2c-0.5,0.3-1.1,0.4-1.9,0.4
	C443.3,57.3,442.6,57.1,442.2,56.9 M434.9,45.6h-10.7V47h4.5v11.6h1.7V47.1h4.5V45.6z M420.4,45.6h-1.7v13h1.7V45.6z M415.1,45.6
	h-10.7V47h4.5v11.6h1.7V47.1h4.5V45.6z M401.1,47c-0.6-0.4-1.2-0.8-1.9-1.1c-0.7-0.3-1.5-0.4-2.4-0.4c-0.7,0-1.3,0.1-1.9,0.3
	s-1.1,0.4-1.5,0.8s-0.8,0.8-1,1.2c-0.3,0.5-0.3,1-0.3,1.7c0,0.5,0.1,0.9,0.3,1.4c0.2,0.3,0.4,0.7,0.8,0.9s0.8,0.5,1.3,0.7
	s1.1,0.3,1.8,0.5c0.6,0.2,1.1,0.3,1.6,0.4c0.5,0.2,0.8,0.3,1.2,0.5c0.3,0.2,0.6,0.4,0.8,0.7c0.2,0.3,0.3,0.6,0.3,0.9
	c0,0.7-0.3,1.2-0.8,1.5s-1.3,0.5-2.2,0.5c-0.5,0-1-0.1-1.4-0.2c-0.4-0.1-0.9-0.3-1.3-0.4c-0.4-0.2-0.8-0.3-1.1-0.6
	c-0.3-0.2-0.6-0.4-0.8-0.6l-0.8,1.4c0.8,0.6,1.5,1.1,2.5,1.4c0.9,0.3,1.9,0.5,2.9,0.5c0.7,0,1.3-0.1,1.9-0.3s1.1-0.3,1.5-0.7
	c0.4-0.3,0.8-0.7,1-1.2c0.3-0.4,0.3-1,0.3-1.6s-0.1-1.1-0.3-1.5c-0.2-0.4-0.5-0.8-0.8-1c-0.4-0.3-0.8-0.5-1.4-0.7
	c-0.5-0.2-1.2-0.3-1.9-0.5c-0.6-0.2-1.1-0.3-1.5-0.4c-0.4-0.1-0.8-0.3-1.1-0.4c-0.3-0.2-0.5-0.3-0.7-0.6s-0.2-0.5-0.2-0.8
	c0-0.7,0.3-1.2,0.7-1.6c0.5-0.4,1.2-0.6,2.2-0.6c0.4,0,0.8,0,1.1,0.1c0.3,0.1,0.7,0.2,1,0.3c0.3,0.2,0.6,0.3,0.8,0.4
	s0.4,0.3,0.6,0.5L401.1,47z M386.2,58.7h1.4v-13H386v10.2l-8.1-10.2h-1.3v13.1h1.7v-10L386.2,58.7z M371.6,45.6h-1.7v13h1.7V45.6z
	 M349,45.6l5,8.3v4.8h1.7V54l5-8.3h-1.8l-4,6.9l-4-6.9C350.3,45.7,349.7,45.6,349,45.6z M345.3,58.7h1.4v-6.5h-4.2v1.3h2.8v1.8
	c-1.2,1.4-2.5,2-3.9,2c-0.7,0-1.3-0.2-1.8-0.4c-0.6-0.3-1-0.7-1.4-1.1c-0.4-0.5-0.8-1-0.9-1.6c-0.3-0.6-0.3-1.3-0.3-1.9
	s0.1-1.3,0.3-1.9c0.2-0.6,0.5-1.2,0.8-1.6c0.4-0.5,0.8-0.8,1.4-1.2c0.5-0.3,1.2-0.4,1.8-0.4c0.8,0,1.5,0.2,2.2,0.6
	c0.7,0.3,1.2,0.9,1.6,1.7l1.3-0.8c-0.4-0.8-1-1.5-1.9-2c-0.8-0.5-1.9-0.8-3.1-0.8c-0.8,0-1.7,0.2-2.5,0.5s-1.4,0.8-1.9,1.4
	c-0.5,0.6-0.9,1.3-1.3,2.1c-0.3,0.8-0.4,1.6-0.4,2.5c0,0.8,0.2,1.7,0.5,2.5s0.8,1.5,1.3,2.1s1.2,1.1,1.9,1.5
	c0.8,0.4,1.5,0.6,2.5,0.6c1.5,0,2.8-0.6,4-1.9L345.3,58.7L345.3,58.7z M321.3,51.2c0.2-0.6,0.8-2.1,1.2-2.5c0.4-0.5,0.8-0.8,1.4-1.2
	c0.6-0.3,1.2-0.4,1.9-0.4c0.7,0,1.3,0.2,1.8,0.4c0.5,0.3,1,0.7,1.4,1.1c0.4,0.5,0.7,1,0.9,1.6c0.3,0.6,0.3,1.3,0.3,1.9
	c0,0.6-0.1,1.3-0.3,1.9c-0.2,0.6-0.5,1.2-0.8,1.6c-0.4,0.5-0.8,0.8-1.4,1.2c-0.6,0.3-1.2,0.4-1.9,0.4c-0.7,0-1.3-0.2-1.9-0.4
	c-0.6-0.3-1-0.7-1.4-1.2s-0.7-1-0.9-1.6c-0.3-0.6-0.3-1.3-0.3-1.9c0-0.6,0.1-1.2,0.3-1.8 M328.1,58.2c0.8-0.3,1.4-0.8,1.9-1.4
	c0.5-0.6,1-1.3,1.3-2.1s0.5-1.6,0.5-2.5c0-0.8-0.2-1.6-0.4-2.5c-0.3-0.8-0.7-1.5-1.3-2.1c-0.5-0.6-1.2-1.1-1.9-1.5
	c-0.8-0.4-1.6-0.6-2.5-0.6c-0.8,0-1.7,0.2-2.5,0.5s-1.4,0.8-1.9,1.4c-0.6,0.6-1,1.4-1.3,2.1c-0.3,0.8-0.5,1.6-0.5,2.5
	c0,0.8,0.2,1.7,0.4,2.5c0.3,0.8,0.7,1.5,1.3,2.1c0.5,0.6,1.2,1.1,1.9,1.5c0.8,0.3,1.6,0.6,2.5,0.6C326.5,58.8,327.4,58.6,328.1,58.2
	 M317.3,58.7v-1.4H310V45.6h-1.7v13.1L317.3,58.7L317.3,58.7z M294.8,48.7c0.2-0.2,0.3-0.3,0.5-0.6c0.3-0.3,0.7-0.5,0.9-0.6
	c0.6-0.3,1.2-0.4,1.9-0.4c0.7,0,1.3,0.2,1.8,0.4c0.5,0.3,1,0.7,1.4,1.1c0.4,0.5,0.7,1,0.9,1.6c0.3,0.6,0.3,1.3,0.3,1.9
	c0,0.6-0.1,1.3-0.3,1.9c-0.2,0.6-0.5,1.2-0.8,1.6c-0.4,0.5-0.8,0.8-1.4,1.2c-0.6,0.3-1.2,0.4-1.9,0.4c-0.7,0-1.3-0.2-1.9-0.4
	c-0.6-0.3-1-0.7-1.4-1.2s-0.7-1-0.9-1.6c-0.3-0.8-0.3-1.6-0.3-1.9c0-0.3,0-0.9,0.3-1.8C294.1,49.5,294.5,49,294.8,48.7z M300.4,58.2
	c0.8-0.3,1.4-0.8,1.9-1.4c0.5-0.6,1-1.3,1.3-2.1s0.5-1.6,0.5-2.5c0-0.8-0.2-1.6-0.4-2.5c-0.3-0.8-0.7-1.5-1.3-2.1
	c-0.5-0.6-1.2-1.1-1.9-1.5c-0.8-0.4-1.6-0.6-2.5-0.6c-0.8,0-1.7,0.2-2.5,0.5s-1.4,0.8-1.9,1.4c-0.6,0.6-1,1.4-1.3,2.1
	c-0.3,0.8-0.5,1.6-0.5,2.5c0,0.8,0.2,1.7,0.4,2.5c0.3,0.8,0.7,1.5,1.3,2.1c0.5,0.6,1.2,1.1,1.9,1.5c0.8,0.3,1.6,0.6,2.5,0.6
	S299.7,58.6,300.4,58.2 M287.6,45.6h-1.7v13h1.7V45.6z M277.7,47.1c0.3,0,0.5,0.1,0.8,0.2c0.3,0.1,0.4,0.3,0.6,0.4
	c0.2,0.2,0.3,0.4,0.4,0.7s0.2,0.6,0.2,0.8s-0.1,0.6-0.2,0.8c-0.1,0.3-0.3,0.5-0.4,0.7c-0.2,0.2-0.4,0.3-0.7,0.5
	c-0.3,0.1-0.5,0.2-0.8,0.2h-4.1V47L277.7,47.1z M280.1,55.9c-0.2,0.2-0.3,0.4-0.6,0.7c-0.3,0.3-0.5,0.3-0.7,0.5
	c-0.3,0.1-0.5,0.2-0.8,0.2h-4.6v-4.5h4.7c0.3,0,0.6,0.1,0.8,0.2c0.3,0.1,0.4,0.3,0.7,0.5c0.3,0.3,0.3,0.6,0.4,0.8
	c0.1,0.3,0.2,0.6,0.2,0.8C280.2,55.3,280.1,55.6,280.1,55.9z M281.1,53.3c-0.4-0.6-1-1-1.8-1.2c0.6-0.3,1.1-0.7,1.4-1.3
	s0.5-1.2,0.5-1.8c0-0.4-0.1-0.8-0.3-1.2c-0.2-0.4-0.3-0.8-0.6-1.1c-0.3-0.3-0.6-0.6-0.9-0.8s-0.8-0.3-1.3-0.3h-6.5v13.1h6.2
	c0.5,0,1-0.1,1.5-0.3c0.4-0.2,0.8-0.4,1.2-0.7c0.3-0.3,0.6-0.7,0.8-1.1c0.2-0.4,0.3-0.8,0.3-1.4C281.8,54.5,281.5,53.8,281.1,53.3
	 M258.9,58.7h1.4v-13h-1.7v10.2l-8.1-10.2h-1.3v13.1h1.7v-10L258.9,58.7z M234.7,50.3c0.2-0.6,0.5-1.2,0.9-1.6
	c0.4-0.5,0.8-0.8,1.4-1.2c0.6-0.3,1.2-0.4,1.9-0.4s1.3,0.2,1.8,0.4s1,0.7,1.4,1.1c0.4,0.5,0.7,1,0.9,1.6c0.3,0.6,0.3,1.3,0.3,1.9
	c0,0.6-0.1,1.3-0.3,1.9c-0.2,0.6-0.5,1.2-0.8,1.6c-0.4,0.5-0.8,0.8-1.4,1.2s-1.2,0.4-1.9,0.4s-1.3-0.2-1.9-0.4
	c-0.6-0.3-1-0.7-1.4-1.2s-0.7-1-0.9-1.6c-0.3-0.6-0.3-1.3-0.3-1.9C234.4,51.5,234.5,50.9,234.7,50.3 M241.3,58.2
	c0.8-0.3,1.4-0.8,1.9-1.4c0.5-0.6,1-1.3,1.3-2.1s0.5-1.6,0.5-2.5c0-0.8-0.2-1.6-0.4-2.5c-0.3-0.8-0.7-1.5-1.3-2.1
	c-0.5-0.6-1.2-1.1-1.9-1.5c-0.8-0.4-1.6-0.6-2.5-0.6c-0.8,0-1.7,0.2-2.5,0.5s-1.4,0.8-1.9,1.4c-0.6,0.6-1,1.4-1.3,2.1
	c-0.3,0.8-0.5,1.6-0.5,2.5c0,0.8,0.2,1.7,0.4,2.5c0.3,0.8,0.7,1.5,1.3,2.1c0.5,0.6,1.2,1.1,1.9,1.5c0.8,0.3,1.6,0.6,2.5,0.6
	C239.8,58.8,240.6,58.6,241.3,58.2 M228.5,45.6h-1.7v13h1.7V45.6z M223.1,45.6h-10.7V47h4.5v11.6h1.7V47.1h4.5V45.6L223.1,45.6z
	 M207.7,53.6h-4.8l2.5-6L207.7,53.6z M202.5,54.9h5.5l1.5,3.8h1.8L206,45.5h-1.4l-5.4,13.1h1.8L202.5,54.9z M185.9,45.6l5.3,13.1
	h1.4l5.3-13.1h-1.8l-4.3,11l-4.3-11H185.9z M175.3,47.1h3.9c0.3,0,0.6,0.1,0.9,0.3c0.3,0.2,0.5,0.3,0.8,0.6s0.4,0.5,0.5,0.8
	c0.2,0.3,0.2,0.7,0.2,1s-0.1,0.7-0.2,1c-0.1,0.3-0.3,0.6-0.4,0.8c-0.2,0.3-0.4,0.4-0.7,0.6c-0.3,0.2-0.6,0.3-0.9,0.3h-4L175.3,47.1
	L175.3,47.1z M175.3,58.7V54h3.5l3,4.7h1.9l-3.1-5c0.4-0.1,0.8-0.3,1.1-0.5c0.3-0.3,0.6-0.5,0.8-0.8c0.3-0.3,0.4-0.8,0.6-1.2
	c0.2-0.4,0.2-0.8,0.2-1.4c0-0.5-0.1-1-0.3-1.5s-0.5-0.9-0.8-1.4c-0.3-0.4-0.8-0.7-1.3-0.9c-0.5-0.3-1-0.3-1.6-0.3h-5.6v13.1
	L175.3,58.7L175.3,58.7z M162.2,57.2v-4.5h6.2v-1.4h-6.2v-4.2h7v-1.4h-8.7v13.1h8.9v-1.4h-7.2V57.2z M155.9,47
	c-0.6-0.4-1.2-0.8-1.9-1.1s-1.5-0.4-2.4-0.4c-0.7,0-1.3,0.1-1.9,0.3s-1.1,0.4-1.5,0.8c-0.4,0.3-0.8,0.8-1,1.2
	c-0.3,0.5-0.3,1-0.3,1.7c0,0.5,0.1,0.9,0.3,1.4c0.2,0.3,0.4,0.7,0.8,0.9s0.8,0.5,1.3,0.7s1.1,0.3,1.8,0.5c0.6,0.2,1.1,0.3,1.6,0.4
	s0.8,0.3,1.2,0.5c0.3,0.2,0.6,0.4,0.8,0.7s0.3,0.6,0.3,0.9c0,0.7-0.3,1.2-0.8,1.5s-1.3,0.5-2.2,0.5c-0.5,0-1-0.1-1.4-0.2
	c-0.4-0.1-0.9-0.3-1.3-0.4c-0.4-0.2-0.8-0.3-1.1-0.6c-0.3-0.2-0.6-0.4-0.8-0.6l-0.8,1.4c0.8,0.6,1.5,1.1,2.5,1.4
	C150,58.8,151,59,152,59c0.7,0,1.3-0.1,1.9-0.3c0.6-0.2,1.1-0.3,1.5-0.7c0.4-0.3,0.8-0.7,1-1.2c0.3-0.4,0.3-1,0.3-1.6
	s-0.1-1.1-0.3-1.5s-0.5-0.8-0.8-1c-0.4-0.3-0.8-0.5-1.4-0.7c-0.5-0.2-1.2-0.3-1.9-0.5c-0.6-0.2-1.1-0.3-1.5-0.4
	c-0.4-0.1-0.8-0.3-1.1-0.4c-0.3-0.2-0.5-0.3-0.7-0.6s-0.2-0.5-0.2-0.8c0-0.7,0.3-1.2,0.7-1.6c0.5-0.4,1.2-0.6,2.2-0.6
	c0.4,0,0.8,0,1.1,0.1s0.7,0.2,1,0.3c0.3,0.2,0.6,0.3,0.8,0.4s0.4,0.3,0.6,0.5L155.9,47z M141,58.7h1.4v-13h-1.7v10.2l-8.1-10.2h-1.3
	v13.1h1.7v-10L141,58.7z M116.8,50.3c0.2-0.6,0.5-1.2,0.9-1.6c0.4-0.5,0.8-0.8,1.4-1.2c0.6-0.3,1.2-0.4,1.9-0.4
	c0.7,0,1.3,0.2,1.8,0.4c0.5,0.3,1,0.7,1.4,1.1c0.4,0.5,0.7,1,0.9,1.6c0.3,0.6,0.3,1.3,0.3,1.9c0,0.6-0.1,1.3-0.3,1.9
	c-0.2,0.6-0.5,1.2-0.8,1.6c-0.4,0.5-0.8,0.8-1.4,1.2s-1.2,0.4-1.9,0.4c-0.7,0-1.3-0.2-1.9-0.4c-0.6-0.3-1-0.7-1.4-1.2
	s-0.7-1-0.9-1.6c-0.3-0.6-0.3-1.3-0.3-1.9C116.5,51.5,116.6,50.9,116.8,50.3 M123.4,58.2c0.8-0.3,1.4-0.8,1.9-1.4
	c0.5-0.6,1-1.3,1.3-2.1s0.5-1.6,0.5-2.5c0-0.8-0.2-1.6-0.4-2.5c-0.3-0.8-0.7-1.5-1.3-2.1c-0.5-0.6-1.2-1.1-1.9-1.5
	c-0.8-0.4-1.6-0.6-2.5-0.6c-0.8,0-1.7,0.2-2.5,0.5s-1.4,0.8-1.9,1.4c-0.6,0.6-1,1.4-1.3,2.1c-0.3,0.8-0.5,1.6-0.5,2.5
	c0,0.8,0.2,1.7,0.4,2.5c0.3,0.8,0.7,1.5,1.3,2.1c0.5,0.6,1.2,1.1,1.9,1.5c0.8,0.3,1.6,0.6,2.5,0.6S122.7,58.6,123.4,58.2 M101,54.5
	c0.3,0.8,0.8,1.5,1.3,2.1s1.2,1.2,1.9,1.5c0.8,0.4,1.6,0.6,2.5,0.6c0.5,0,1-0.1,1.5-0.2c0.5-0.2,1-0.3,1.5-0.6s0.9-0.6,1.3-0.9
	c0.3-0.3,0.7-0.8,0.8-1.3l-1.4-0.8c-0.2,0.4-0.4,0.8-0.7,1c-0.3,0.3-0.6,0.5-0.9,0.7s-0.7,0.3-1,0.4s-0.7,0.2-1.1,0.2
	c-0.7,0-1.3-0.2-1.8-0.4c-0.6-0.3-1-0.7-1.4-1.2s-0.8-1-0.9-1.6c-0.3-0.6-0.3-1.3-0.3-1.9c0-0.6,0.1-1.2,0.3-1.9
	c0.2-0.6,0.5-1.2,0.8-1.6c0.4-0.5,0.8-0.8,1.4-1.2s1.2-0.4,1.9-0.4c0.3,0,0.7,0,1,0.1s0.7,0.2,1,0.3s0.6,0.4,0.9,0.7s0.5,0.6,0.7,1
	l1.3-0.8c-0.4-0.8-1-1.5-1.9-2c-0.8-0.5-1.9-0.8-3-0.8c-1,0-1.9,0.2-2.6,0.6c-0.8,0.4-1.4,0.8-1.9,1.5c-0.5,0.6-0.9,1.4-1.2,2.1
	c-0.3,0.8-0.4,1.5-0.4,2.4C100.6,52.9,100.6,53.7,101,54.5 M82.6,47.2c0.3-0.3,0.8-0.5,1.4-0.5c0.5,0,0.9,0.2,1.2,0.4
	c0.3,0.3,0.5,0.6,0.5,1.1s-0.2,0.8-0.6,1.3c-0.4,0.3-0.9,0.8-1.5,1.2c-0.3-0.3-0.5-0.6-0.7-0.8c-0.2-0.3-0.3-0.4-0.4-0.6
	c-0.1-0.2-0.2-0.3-0.3-0.4c-0.1-0.2-0.1-0.3-0.1-0.4C82.1,47.9,82.3,47.5,82.6,47.2 M83.1,58c0,0-0.2,0-0.3,0.2c0,0.2,0-0.1,0.2-0.5
	c0.1-0.5,0,0,0.1-0.3c-0.3-0.1-0.7-0.3-0.9-0.4c-0.3-0.2-0.5-0.4-0.7-0.8c-0.2-0.3-0.3-0.6-0.3-1c0-0.6,0.2-1.1,0.5-1.5
	s0.8-0.8,1.4-1.3l3.7,3.9c-0.4,0.4-0.8,0.7-1.3,0.9c-0.5,0.3-1,0.3-1.5,0.3c-0.3,0-0.7,0-1-0.2 M91.3,58.7L88.8,56
	c0.3-0.6,0.6-1.2,0.8-1.9c0.2-0.7,0.3-1.4,0.3-2.2h-1.4c0,0.6-0.1,1.2-0.2,1.7c-0.2,0.5-0.3,1-0.5,1.4l-3.3-3.5
	c0.3-0.3,0.8-0.5,1-0.8c0.3-0.3,0.6-0.5,0.8-0.8c0.3-0.3,0.4-0.6,0.6-0.9c0.2-0.3,0.3-0.7,0.3-1c0-0.4-0.1-0.8-0.3-1.1
	c-0.2-0.3-0.4-0.6-0.7-0.8c-0.3-0.3-0.6-0.4-1-0.5s-0.8-0.2-1.3-0.2s-0.9,0.1-1.4,0.3c-0.4,0.2-0.8,0.3-1.1,0.6
	c-0.3,0.3-0.5,0.6-0.7,0.9c-0.2,0.3-0.3,0.8-0.3,1.2c0,0.3,0,0.4,0.1,0.7s0.2,0.4,0.3,0.7c0.2,0.3,0.3,0.5,0.5,0.8s0.5,0.6,0.8,0.9
	c-0.3,0.3-0.7,0.5-1,0.8s-0.6,0.6-0.8,0.8c-0.3,0.3-0.4,0.7-0.6,1s-0.3,0.8-0.3,1.2c0,0.5,0.1,1,0.3,1.4c0.3,0.4,0.5,0.8,0.9,1.2
	c0.4,0.3,0.8,0.6,1.4,0.8c0.5,0.2,1.1,0.3,1.7,0.3c0.8,0,1.4-0.2,2.1-0.4c0.7-0.3,1.3-0.7,1.8-1.2l1.4,1.4h2.1v-0.1H91.3z"/>
<path fill="#6E6F72" d="M470.2,26.1c2.3,0,4.1,1.9,4.1,3.9c0,2.5-1.9,4.4-4.1,4.4c-2.3,0-4.1-1.9-4.1-4.4
	C466.1,27.9,467.9,26.1,470.2,26.1 M470.2,22.3c-4.2,0-8.1,3.1-8.1,7.5c0,4.7,3.4,8.1,8.1,8.1s8.1-3.4,8.1-8.1
	C478.4,25.5,474.5,22.3,470.2,22.3 M450.4,26.1c2.3,0,4.1,1.9,4.1,3.9c0,2.5-1.9,4.4-4.1,4.4c-2.3,0-4.1-1.9-4.1-4.4
	C446.3,27.9,448.1,26.1,450.4,26.1 M450.4,22.3c-4.2,0-8.1,3.1-8.1,7.5c0,4.7,3.4,8.1,8.1,8.1s8.1-3.4,8.1-8.1
	C458.5,25.5,454.6,22.3,450.4,22.3 M432.1,34.3l6.9-11.4h-12.2v3.2h5.8l-6.9,11.4h12.6v-3.2H432.1z M409.2,22.8h-3.8v14.7h8.4v-3.2
	h-4.6V22.8z M395.5,32.1h-3.1l1.6-4.7l0,0L395.5,32.1z M396.6,35l0.9,2.5h4.1L396,22.8h-4.1l-5.7,14.7h4.1l1-2.5H396.6z M367.9,37.5
	h3.8v-9l0,0l7,9h3.8V22.8h-3.8v9l0,0l-7-9h-3.8V37.5z M355.5,26.1c2.3,0,4.1,1.9,4.1,3.9c0,2.5-1.9,4.4-4.1,4.4s-4.1-1.9-4.1-4.4
	C351.3,27.9,353.2,26.1,355.5,26.1 M355.5,22.3c-4.2,0-8.1,3.1-8.1,7.5c0,4.7,3.4,8.1,8.1,8.1s8.1-3.4,8.1-8.1
	C363.6,25.5,359.7,22.3,355.5,22.3 M343,22.8h-3.8v14.7h3.8V22.8z M332.2,26.1h3.1v-3.2h-10.2v3.2h3.1v11.4h3.8L332.2,26.1
	L332.2,26.1z M317.7,32.1h-3.1l1.6-4.7l0,0L317.7,32.1z M318.7,35l0.9,2.5h4.1l-5.5-14.7h-4.1l-5.7,14.7h4.1l1-2.5H318.7z
	 M290.1,37.5h3.8v-9l0,0l7,9h3.8V22.8h-3.8v9l0,0l-7-9h-3.8V37.5z M275.9,23.7c-1.3-0.8-3.1-1.2-4.6-1.2c-3,0-5.1,1.9-5.1,4.9
	c0,2.9,1.6,3.5,4,4.1c0.8,0.3,2.3,0.6,2.3,1.7c0,1-0.9,1.4-1.9,1.4c-1.3,0-2.5-0.7-3.4-1.5l-1.6,3c1.5,1,3.3,1.7,5.2,1.7
	c1.4,0,3-0.4,4.1-1.4c1.2-1,1.5-2.5,1.5-4c0-2.4-1.6-3.4-3.6-4l-0.9-0.3c-0.7-0.3-1.7-0.5-1.7-1.4c0-0.8,0.9-1.2,1.6-1.2
	c0.9,0,1.9,0.4,2.5,1L275.9,23.7z M258.8,22.8l-2.5,6.4h2.3l3.6-6.4H258.8z M236.8,37.5h3.8v-9l0,0l7,9h3.8V22.8h-3.8v9l0,0l-7-9
	h-3.8V37.5z M227.1,32.1h-3.2l1.6-4.7l0,0L227.1,32.1z M228.1,35l0.9,2.5h4.1l-5.5-14.7h-4.1l-5.7,14.7h4.1l1-2.5H228.1z M214,22.8
	h-3.8v14.7h3.8V22.8z M190.6,37.5h3.8v-9l0,0l7,9h3.8V22.8h-3.8v9l0,0l-7-9h-3.8V37.5z M178.1,26.1c2.3,0,4.1,1.9,4.1,3.9
	c0,2.5-1.9,4.4-4.1,4.4c-2.3,0-4.1-1.9-4.1-4.4C174,27.9,175.8,26.1,178.1,26.1 M178.1,22.3c-4.2,0-8.1,3.1-8.1,7.5
	c0,4.7,3.4,8.1,8.1,8.1s8.1-3.4,8.1-8.1C186.3,25.5,182.4,22.3,178.1,22.3 M165.8,23.7c-1.3-0.8-3.1-1.2-4.6-1.2
	c-3,0-5.1,1.9-5.1,4.9c0,2.9,1.6,3.5,4,4.1c0.8,0.3,2.3,0.6,2.3,1.7c0,1-0.9,1.4-1.9,1.4c-1.3,0-2.5-0.7-3.4-1.5l-1.6,3
	c1.5,1,3.3,1.7,5.2,1.7c1.4,0,3-0.4,4.1-1.4c1.2-1,1.5-2.5,1.5-4c0-2.4-1.6-3.4-3.6-4l-0.9-0.3c-0.7-0.3-1.7-0.5-1.7-1.4
	c0-0.8,0.9-1.2,1.6-1.2c0.9,0,1.9,0.4,2.5,1L165.8,23.7z M141.9,28.5v-5.7h-3.8v14.7h3.8v-6h5.5v6h3.8V22.8h-3.8v5.7H141.9z
	 M131,26.1h3.1v-3.2h-10.2v3.2h3.1v11.4h3.8L131,26.1L131,26.1z M120.1,22.8h-3.8v14.7h3.8V22.8z M93.7,37.5h3.8l1.2-8.5l0,0
	l3.4,8.5h1.5l3.6-8.5l0,0l1.1,8.5h3.8l-2.2-14.7h-3.7l-3.1,7.9l-3-7.9h-3.7L93.7,37.5z M89.6,23.7c-1.3-0.8-3.1-1.2-4.6-1.2
	c-3,0-5.1,1.9-5.1,4.9c0,2.9,1.6,3.5,4,4.1c0.8,0.3,2.3,0.6,2.3,1.7c0,1-0.9,1.4-1.9,1.4c-1.3,0-2.5-0.7-3.4-1.5l-1.6,3
	c1.5,1,3.3,1.7,5.2,1.7c1.4,0,3-0.4,4.1-1.4c1.2-1,1.5-2.5,1.5-4c0-2.4-1.6-3.4-3.6-4l-1-0.3c-0.7-0.3-1.7-0.5-1.7-1.4
	c0-0.8,0.9-1.2,1.6-1.2c0.9,0,1.9,0.4,2.5,1L89.6,23.7z"/>
<circle fill="#6E6F72" cx="35.7" cy="40.7" r="33.1"/>
<path fill="#FFFFFF" d="M58.7,48.4c-2.5-4.2-6.4-4.3-6.9-4.3l0,0l16.5-3.5l-16.5-3.5l0,0c0.2-0.2,3.4-3,8.2-3
	c3.6-0.1,6.8-4.5,4.7-7.9c0,0-0.6,5.3-7.4,3.6c-4.7-1.3-7.5,1.4-7.9,1.9l0,0l9.2-14.1l-14.1,9.2l0,0c0-0.2,0.3-4.5,3.6-8
	c2.5-2.6,1.6-8-2.2-9c0,0,3.4,4.2-2.7,7.7c-4.2,2.5-4.3,6.4-4.3,6.9l0,0L35.7,7.9l-3.5,16.5l0,0c-0.2-0.2-3-3.4-3-8.2
	c-0.1-3.6-4.5-6.8-7.9-4.7c0,0,5.3,0.6,3.6,7.4c-1.3,4.7,1.5,7.5,1.9,7.9l0,0l-14.1-9.2l0,0l0,0L20.2,29l1.7,2.6l0,0
	c-0.2,0-4.5-0.3-8-3.6c-2.6-2.5-8-1.6-9,2.2c0,0,4.2-3.4,7.7,2.7c2.5,4.2,6.4,4.3,6.9,4.3l0,0L3,40.7l16.5,3.5l0,0
	c-0.1,0.1-3.3,3-8.2,3c-3.6,0.1-6.8,4.5-4.7,7.9c0,0,0.6-5.3,7.4-3.6c4.7,1.3,7.6-1.5,7.9-1.9l0,0l-9.2,14.1l14.1-9.2
	c0,0.2-0.3,4.5-3.6,8c-2.5,2.6-1.6,8,2.2,9c0,0-3.4-4.2,2.7-7.7c4.2-2.5,4.3-6.4,4.3-6.9l0,0l3.5,16.5l3.5-16.5l0,0
	c0.1,0.2,3,3.4,3,8.2c0.1,3.6,4.5,6.8,7.9,4.7c0,0-5.3-0.6-3.6-7.4c1.3-4.7-1.5-7.5-1.9-7.9l0,0l14.1,9.2L54,56.2l-4.3-6.7l0,0
	c0.2,0,4.5,0.3,8,3.6c2.6,2.5,8,1.6,9-2.2C66.4,51.1,62.2,54.5,58.7,48.4z"/>
<path fill="#FFFFFF" stroke="#000000" stroke-miterlimit="10" d="M84.5,61.3"/>
<path fill="#6E6F72" stroke="#6E6F72" stroke-width="2" stroke-miterlimit="10" d="M82.2,57.9"/>
</svg>
